<?xml version="1.0" standalone="no"?>
<!DOCTYPE svg PUBLIC "-//W3C//DTD SVG 20010904//EN"
 "http://www.w3.org/TR/2001/REC-SVG-20010904/DTD/svg10.dtd">
<svg version="1.0" xmlns="http://www.w3.org/2000/svg"
 width="400.000000pt" height="400.000000pt" viewBox="0 0 400.000000 400.000000"
 preserveAspectRatio="xMidYMid meet">
<metadata>
Created by potrace 1.14, written by Peter Selinger 2001-2017
</metadata>
<g transform="translate(0.000000,400.000000) scale(0.100000,-0.100000)"
fill="#000000" stroke="none">
<path d="M1858 3890 c-90 -30 -190 -94 -270 -173 -40 -40 -80 -83 -88 -96 -8
-13 -25 -36 -37 -51 -13 -15 -23 -30 -23 -33 0 -3 -13 -26 -30 -50 -16 -25
-48 -82 -70 -129 l-41 -84 -67 12 c-68 12 -355 13 -402 1 -14 -4 -38 -9 -55
-12 -45 -9 -158 -47 -175 -60 -8 -6 -28 -17 -45 -25 -16 -8 -59 -44 -95 -80
-105 -106 -148 -213 -148 -370 0 -196 95 -440 260 -672 l48 -68 -48 -67 c-125
-175 -221 -386 -251 -549 -24 -132 -6 -277 47 -377 43 -82 145 -178 232 -220
123 -59 276 -89 441 -88 95 1 125 4 216 21 l43 7 25 -56 c25 -55 85 -161 115
-206 8 -12 27 -40 42 -63 23 -34 120 -136 178 -187 33 -28 129 -79 192 -101
151 -53 329 -18 477 94 43 32 151 136 151 145 0 4 7 15 16 25 39 43 64 78 64
89 0 6 3 13 8 15 10 5 37 51 88 153 l45 91 67 -12 c120 -20 307 -17 423 7 57
11 112 25 124 29 11 4 23 8 28 9 4 0 35 15 70 33 72 38 181 143 216 208 76
146 79 328 8 540 -38 114 -147 316 -230 423 l-29 37 29 38 c123 158 236 397
267 561 29 152 15 287 -42 394 -32 61 -144 178 -189 198 -18 8 -33 17 -33 20
0 4 -12 10 -27 15 -36 10 -33 9 -68 23 -16 7 -77 22 -135 33 -86 17 -129 19
-245 15 -77 -3 -151 -8 -165 -10 -70 -15 -66 -18 -116 83 -26 52 -57 109 -68
125 -12 17 -26 37 -31 46 -56 90 -153 199 -226 252 -144 107 -326 145 -471 97z
m256 -124 c48 -14 133 -62 162 -91 8 -7 17 -15 21 -17 16 -6 106 -114 146
-173 23 -33 61 -98 84 -144 48 -93 48 -95 -22 -106 -22 -4 -65 -15 -95 -25
-30 -9 -80 -25 -110 -35 -30 -9 -74 -26 -97 -36 -24 -10 -47 -19 -52 -19 -5 0
-40 -14 -77 -31 -38 -16 -75 -28 -84 -25 -8 2 -69 26 -135 53 -66 27 -140 55
-165 62 -25 7 -70 21 -100 32 -30 10 -73 21 -95 25 -70 11 -70 12 -22 105 62
121 120 202 202 283 85 84 90 88 144 115 91 47 194 56 295 27z m-946 -599 c40
-3 76 -8 79 -11 3 -3 2 -13 -2 -23 -5 -10 -9 -22 -9 -28 -1 -5 -11 -39 -22
-75 -28 -84 -43 -139 -48 -170 -2 -14 -11 -52 -19 -85 -9 -33 -19 -82 -22
-110 -3 -27 -8 -59 -10 -71 -3 -12 -7 -38 -11 -58 -3 -25 -16 -47 -37 -64 -17
-15 -108 -105 -204 -200 -95 -95 -173 -166 -173 -157 0 8 -3 15 -8 15 -4 0
-12 8 -17 19 -6 10 -23 38 -39 62 -50 75 -112 200 -145 292 -73 208 -52 397
57 513 76 81 224 142 367 151 50 3 91 6 92 7 2 1 85 -2 171 -7z m1959 -2 c34
-3 81 -12 105 -21 24 -9 51 -17 60 -19 29 -6 132 -70 162 -100 116 -116 140
-309 65 -522 -33 -92 -94 -217 -145 -292 -16 -24 -33 -51 -39 -60 -31 -47 -27
-49 -203 126 -92 92 -181 177 -196 189 -28 21 -46 78 -61 200 -4 27 -13 74
-20 104 -8 30 -26 105 -41 165 -15 61 -30 115 -34 120 -11 16 -32 97 -26 102
3 3 47 7 98 10 51 3 94 6 96 7 3 3 96 -1 179 -9z m-1632 -60 c150 -43 231 -68
240 -75 6 -4 23 -10 39 -14 16 -4 38 -13 48 -20 17 -12 11 -17 -62 -57 -103
-56 -126 -69 -175 -100 -22 -14 -44 -28 -50 -30 -12 -5 -188 -121 -195 -129
-3 -3 -27 -20 -54 -39 -39 -27 -47 -30 -43 -15 9 30 20 87 22 114 3 34 80 306
100 354 18 43 21 43 130 11z m1162 -77 c18 -54 35 -110 37 -125 3 -15 12 -50
20 -78 17 -56 47 -207 43 -212 -2 -1 -19 11 -38 27 -19 16 -40 29 -46 30 -7 0
-13 3 -13 8 0 4 -30 25 -66 47 -36 22 -77 50 -92 62 -15 13 -31 23 -36 23 -4
0 -29 14 -54 31 -26 17 -92 56 -149 87 -91 49 -101 57 -85 68 9 7 24 14 32 14
8 0 27 6 41 14 28 14 123 45 204 66 28 7 56 17 63 23 6 5 12 7 12 4 0 -3 12
-1 28 3 58 18 65 12 99 -92z m-567 -151 c30 -16 80 -43 110 -59 103 -55 146
-80 294 -176 87 -56 286 -206 291 -220 18 -48 27 -557 12 -742 -6 -66 -13
-100 -25 -114 -18 -20 -206 -161 -277 -207 -164 -107 -243 -153 -427 -246
l-68 -34 -67 34 c-144 73 -246 129 -328 181 -123 79 -155 101 -266 183 -85 63
-120 95 -123 113 -15 74 -19 136 -20 355 -2 221 5 385 18 460 5 24 29 47 124
117 112 83 144 105 267 184 80 51 174 103 325 180 72 37 76 37 160 -9z m-1016
-649 c-8 -119 -8 -369 0 -463 l7 -80 -47 45 c-56 54 -190 194 -237 248 -21 23
-24 16 46 95 48 54 228 237 233 237 2 0 1 -37 -2 -82z m1986 -53 c54 -55 117
-124 148 -160 14 -17 13 -18 -83 -123 -67 -73 -90 -97 -159 -162 l-47 -45 7
80 c8 101 8 343 -1 460 l-6 89 41 -40 c23 -21 68 -66 100 -99z m-2337 -299 c9
-7 17 -17 17 -21 0 -8 245 -252 323 -322 36 -32 44 -61 62 -207 3 -22 12 -67
21 -100 9 -34 18 -72 20 -86 5 -33 20 -84 56 -198 17 -51 28 -95 25 -98 -13
-14 -290 -21 -383 -10 -114 14 -262 82 -326 150 -40 42 -87 132 -93 178 -6 40
-6 138 -1 196 10 97 100 309 192 448 61 92 59 91 87 70z m2603 -14 c6 -12 18
-30 27 -40 10 -10 17 -22 17 -27 0 -5 7 -16 15 -24 26 -30 102 -185 134 -274
74 -212 52 -404 -60 -515 -52 -50 -56 -53 -119 -84 -68 -32 -145 -57 -196 -63
-92 -11 -378 -4 -392 9 -3 3 5 34 17 68 39 111 91 328 117 488 17 101 19 105
58 140 43 37 312 306 334 334 17 21 33 16 48 -12z m-1986 -542 c10 -11 185
-125 220 -144 19 -10 42 -24 50 -31 8 -7 63 -39 122 -70 59 -32 105 -61 103
-65 -2 -3 -23 -13 -47 -20 -24 -7 -47 -17 -53 -20 -5 -4 -50 -19 -100 -34 -49
-15 -110 -33 -135 -41 -25 -8 -62 -17 -82 -21 -35 -6 -38 -5 -53 32 -19 44
-91 301 -100 354 -9 57 -16 94 -22 114 -4 15 4 12 43 -15 27 -19 51 -36 54
-39z m1416 44 c-3 -9 -9 -34 -12 -57 -9 -63 -61 -261 -92 -352 -25 -72 -30
-80 -52 -79 -36 1 -71 9 -103 22 -15 7 -42 14 -59 17 -43 8 -155 44 -187 61
-14 8 -33 14 -41 14 -8 0 -23 7 -33 14 -16 12 -10 18 60 55 43 23 99 54 124
69 98 58 144 86 149 92 3 3 43 30 90 60 47 29 90 59 95 65 12 14 47 34 59 35
4 0 5 -7 2 -16z m-732 -433 c3 -5 16 -11 28 -14 13 -3 61 -21 107 -41 73 -31
170 -64 209 -72 7 -1 34 -9 60 -17 26 -9 69 -21 95 -29 l49 -13 -47 -89 c-64
-122 -113 -193 -193 -275 -103 -106 -192 -154 -310 -165 -72 -7 -214 36 -258
78 -6 6 -22 18 -34 26 -73 49 -185 196 -257 340 -47 92 -47 94 22 104 22 4 58
13 80 21 22 7 76 25 120 39 79 24 243 88 274 106 20 12 48 13 55 1z"/>
<path d="M1928 2615 c-1 -1 -23 -5 -48 -8 -122 -16 -260 -57 -260 -78 0 -5 -4
-9 -10 -9 -15 0 -50 -38 -60 -66 -14 -36 -13 -875 1 -910 36 -97 247 -168 474
-159 61 2 117 6 125 8 8 2 42 9 75 16 129 28 218 88 230 153 3 18 5 227 3 463
l-3 430 -25 33 c-29 39 -122 86 -200 101 -30 6 -66 13 -80 16 -28 6 -216 15
-222 10z m298 -155 c39 -12 79 -29 90 -37 18 -14 18 -15 -5 -31 -62 -42 -122
-55 -281 -58 -89 -2 -176 1 -205 8 -61 13 -155 53 -155 66 0 17 129 67 195 75
17 2 89 3 160 2 107 -1 142 -5 201 -25z m-532 -209 c3 -5 23 -12 43 -16 21 -4
47 -9 58 -11 11 -2 43 -8 70 -13 106 -21 403 6 439 40 23 21 31 7 31 -52 0
-58 -2 -63 -34 -84 -107 -74 -478 -76 -598 -4 -17 11 -33 25 -35 32 -4 10 -3
106 1 115 3 6 20 1 25 -7z m144 -308 c159 -18 358 -6 442 27 27 11 51 16 51
12 1 -4 2 -31 3 -60 3 -64 -4 -73 -77 -100 -124 -47 -363 -48 -501 -4 -83 28
-88 32 -90 93 -4 79 -2 81 55 59 27 -11 80 -23 117 -27z m-85 -255 c115 -30
346 -33 467 -6 47 11 91 20 99 21 11 2 15 -12 16 -56 2 -69 -3 -74 -105 -108
-56 -19 -87 -22 -230 -22 -143 -1 -173 2 -228 21 -99 34 -107 42 -108 112 0
33 1 60 4 60 2 0 40 -10 85 -22z"/>
</g>
</svg>
